<svg width="1024" height="1024" xmlns="http://www.w3.org/2000/svg" xmlns:svg="http://www.w3.org/2000/svg" xmlns:se="http://svg-edit.googlecode.com" class="icon">
 <defs>
  <style type="text/css"/>
  <style class="darkreader darkreader--sync" media="screen"/>
 </defs>
 <g class="layer">
  <title>Layer 1</title>
  <path d="m928,456l0,-141.5c0,-17 -6.7,-33.3 -18.7,-45.3l-250.6,-250.5c-12,-12 -28.2,-18.7 -45.2,-18.7l-469.5,0c-26.5,0 -48,21.5 -48,48l0,408c0,4.4 -3.6,8 -8,8l-72,0c-8.8,0 -16,7.2 -16,16l0,400c0,8.8 7.2,16 16,16l80,0c0,70.7 57.3,128 128,128l656,0c26.5,0 48,-21.5 48,-48l0,-64c0,-8.8 7.2,-16 16,-16l64,0c8.8,0 16,-7.2 16,-16l0,-400c0,-8.8 -7.2,-16 -16,-16l-72,0c-4.4,0 -8,-3.6 -8,-8zm-224,-301.5l69.5,69.5l-65.5,0c-2.2,0 -4,-1.8 -4,-4l0,-65.5zm-536,-90.5l408,0c35.3,0 64,28.7 64,64l0,144c0,8.8 7.2,16 16,16l144,0c35.3,0 64,28.7 64,64l0,104c0,4.4 -3.6,8 -8,8l-688,0c-4.4,0 -8,-3.6 -8,-8l0,-384c0,-4.4 3.6,-8 8,-8zm688,896l-632,0c-35.3,0 -64,-28.7 -64,-64l696,0c4.4,0 8,3.6 8,8l0,48c0,4.4 -3.6,8 -8,8zm96,-128l-880,0c-4.4,0 -8,-3.6 -8,-8l0,-288c0,-4.4 3.6,-8 8,-8l880,0c4.4,0 8,3.6 8,8l0,288c0,4.4 -3.6,8 -8,8z" fill="#ffffff" id="svg_1" style="--darkreader-inline-fill:#dcdad7;"/>
  <text fill="#ffffff" font-family="Helvetica" font-size="24" font-weight="bold" id="svg_3" stroke-width="0" style="--darkreader-inline-fill:#dcdad7; cursor: move; --darkreader-inline-stroke:none;" text-anchor="middle" transform="matrix(13.4963 0 0 10.8749 -2753.19 -7146.31)" x="242" xml:space="preserve" y="728">PY</text>
 </g>
</svg>