<svg width="1024" height="1024" xmlns="http://www.w3.org/2000/svg" p-id="1136" version="1.1" class="icon" t="1651573890790">

 <g>
  <title>Layer 1</title>
  <path style="--darkreader-inline-fill:#dcdad7;" id="svg_1" fill="#ffffff" p-id="1137" d="m564.77013,755.456c-14.4384,0 -26.112,12.47573 -26.112,27.86987l0,168.61866l28.43307,0l175.3088,-191.50506l-177.62987,-4.98347zm177.62987,-55.72267l0,-88.18346c0,-15.18934 11.4688,-27.47734 25.6,-27.47734s25.6,12.288 25.6,27.47734l0,160.13653c0,7.2192 -2.64533,14.1312 -7.33867,19.28533l-190.17386,207.73547a24.74667,24.74667 0 0 1 -18.26134,8.22613l-383.26613,0c-65.024,0 -117.76,-56.6272 -117.76,-126.48106l0,-736.9216c0,-69.8368 52.736,-126.464 117.76,-126.464l481.28,0c65.024,0 117.76,56.6272 117.76,126.48106l0,48.93014s-51.2,15.18933 -51.2,0l0,-48.9472c0,-39.4752 -29.7984,-71.49227 -66.56,-71.49227l-481.28,0c-36.7616,0 -66.56,32.01707 -66.56,71.50933l0,736.88747c0,39.4752 29.7984,71.49227 66.56,71.49227l291.84,0l0,-168.61867c0,-46.14827 35.08907,-83.57547 78.37013,-83.57547l177.62987,0z"/>
  <text style="--darkreader-inline-fill:#dcdad7;" font-style="italic" font-weight="bold" transform="matrix(1.23852 0 0 1.26472 -115.513 -80.2306)" stroke="null" xml:space="preserve" text-anchor="start" font-family="'Arimo'" font-size="250" stroke-width="0" id="svg_3" y="450" x="220" fill="#ffffff">JSON</text>
 </g>
</svg>